<svg width="21" height="20" viewBox="0 0 21 20" fill="none" xmlns="http://www.w3.org/2000/svg">
<path fill-rule="evenodd" clip-rule="evenodd" d="M10.1053 0C4.52224 0 0 4.52845 0 10.1053C0 14.5717 2.89697 18.3557 6.91054 19.6956C7.41301 19.7887 7.59911 19.4785 7.59911 19.2056C7.59911 18.9637 7.5929 18.3309 7.5867 17.4873C4.77658 18.0952 4.18106 16.1349 4.18106 16.1349C3.72201 14.9687 3.05825 14.6585 3.05825 14.6585C2.14016 14.032 3.12649 14.0444 3.12649 14.0444C4.13764 14.1188 4.67733 15.0866 4.67733 15.0866C5.57681 16.6312 7.04081 16.1845 7.61772 15.924C7.71077 15.2727 7.97131 14.826 8.25666 14.5717C6.01105 14.3173 3.65377 13.4489 3.65377 9.57798C3.65377 8.47378 4.04459 7.5743 4.69594 6.86711C4.59048 6.61278 4.24309 5.58302 4.79519 4.19347C4.79519 4.19347 5.64505 3.92052 7.57429 5.22943C8.38073 5.00611 9.243 4.89445 10.1053 4.88824C10.9613 4.89445 11.8298 5.00611 12.6362 5.22943C14.5655 3.92052 15.4153 4.19347 15.4153 4.19347C15.9674 5.58302 15.62 6.61278 15.5146 6.86711C16.1597 7.5743 16.5505 8.47378 16.5505 9.57798C16.5505 13.4613 14.1871 14.3111 11.9353 14.5655C12.295 14.8756 12.6238 15.496 12.6238 16.4389C12.6238 17.7912 12.6114 18.8768 12.6114 19.2118C12.6114 19.4847 12.7913 19.7949 13.3062 19.6956C17.3198 18.3557 20.2105 14.5717 20.2105 10.1115C20.2105 4.52845 15.6883 0 10.1053 0Z" fill="#191717"/>
</svg>
